<svg width="150" height="16" viewBox="0 0 150 16" fill="none" xmlns="http://www.w3.org/2000/svg">
<g clip-path="url(#clip0_2526_3361)">
<path d="M0 15.0668L0.796218 15.2763C0.796218 15.2763 10.5355 12.3279 13.5 12.1269C16.4643 12.3279 26.204 15.2763 26.204 15.2763L27 15.0668C27 15.0668 18.5298 9.28541 13.5 9.17322C8.4702 9.28541 0 15.0668 0 15.0668Z" fill="#480E2A"/>
<path d="M27 1.11921L26.204 0.909668C26.204 0.909668 16.4645 3.85809 13.5003 4.05908C10.5355 3.85809 0.795965 0.909668 0.795965 0.909668L0 1.11921C0 1.11921 8.4702 6.90059 13.5003 7.01278C18.5298 6.90034 27 1.11921 27 1.11921Z" fill="#480E2A"/>
<path d="M38.2653 4.62066H37.5291V14.5668H34.1055V1.76855H40.4189L43.5298 9.10019H44.6342L47.7266 1.76855H54.0401V14.5668H50.6165V4.62066H49.8803L46.6407 11.9523H41.5236L38.2655 4.62066H38.2653ZM58.0894 1.76855H61.513V14.5668H58.0894V1.76855ZM65.5623 1.76855H71.6915L78.3918 11.7147H79.128V1.76855H82.5516V14.5668H76.4221L69.7221 4.62066H68.9859V14.5668H65.5623V1.76855ZM86.2332 14.5668V11.7144H98.3264C99.0441 11.7144 99.4493 11.3121 99.4493 10.5992C99.4493 9.88634 99.0443 9.48408 98.3264 9.48408H90.209C87.5031 9.48408 85.8649 8.03965 85.8649 5.62632C85.8649 3.21298 87.5031 1.76855 90.209 1.76855H102.044V4.6209H90.209C89.5648 4.6209 89.1965 4.98642 89.1965 5.62656C89.1965 6.26671 89.5648 6.63223 90.209 6.63223H98.3264C101.124 6.63223 102.781 8.11315 102.781 10.5997C102.781 13.0863 101.124 14.5673 98.3264 14.5673H86.2332V14.5668ZM104.235 14.4938L111.91 1.76855H116.77L124.445 14.4938V14.5668H120.635L119.255 12.1899H109.426L108.045 14.5668H104.235V14.4938H104.235ZM117.616 9.33782L114.892 4.62066H113.788L111.064 9.33782H117.616ZM127.133 1.76855H130.556V14.5668H127.133V1.76855ZM139.999 4.62066H133.428V1.76855H149.994V4.6209H143.422V14.567H139.999V4.62066Z" fill="#480E2A"/>
</g>
<defs>
<clipPath id="clip0_2526_3361">
<rect width="149.993" height="14.1806" fill="white" transform="translate(0 0.909668)"/>
</clipPath>
</defs>
</svg>
